<svg width="42" height="42" viewBox="0 0 42 42" fill="none" xmlns="http://www.w3.org/2000/svg">
<circle cx="21" cy="21" r="21" fill="white"/>
<path d="M22.4148 34.7536C22.6606 34.5993 22.9352 34.4758 23.1478 34.2834C23.4956 33.9686 23.5645 33.5316 23.5645 33.0773C23.5645 27.2825 23.5645 21.4874 23.5645 15.6918C23.5645 13.4124 23.5645 11.1332 23.5645 8.85427C23.5645 8.05882 23.1485 7.43181 22.4252 7.32546C21.81 7.23787 21.1854 7.23787 20.5702 7.32546C19.8875 7.42136 19.4727 8.01087 19.4322 8.73132C19.426 8.8432 19.4322 8.95631 19.4322 9.06819C19.4322 16.9997 19.4289 24.9312 19.4224 32.8627C19.4224 33.7695 19.6903 34.4315 20.5806 34.7536H22.4148Z" fill="black"/>
<path d="M15.7355 34.7534C15.977 34.5893 16.0427 34.3618 16.0427 34.0723C16.0323 32.2324 16.0372 30.3919 16.0372 28.5521V28.1796C16.3518 28.1796 16.6443 28.1863 16.9368 28.1796C17.2821 28.1697 17.5015 27.9847 17.499 27.6632C17.4849 25.8191 17.4148 23.9644 16.6744 22.2537C16.3475 21.4963 16.4901 20.8337 16.6043 20.12C16.6424 19.8882 16.6879 19.6583 16.7322 19.4278C16.8686 18.7129 16.4403 18.116 15.7164 18.0945C14.7364 18.0656 13.7551 18.0681 12.775 18.0945C12.0825 18.1123 11.6475 18.6508 11.7458 19.335C11.8367 19.9706 11.9737 20.5995 12.0684 21.2351C12.0932 21.4026 12.0719 21.5736 12.0069 21.7299C11.4508 22.9766 11.2081 24.2964 11.0852 25.6432C11.0312 26.2426 11.0201 26.8469 11.0017 27.4493C10.9838 28.0419 11.1319 28.1833 11.739 28.1839H12.4413V28.5724C12.4413 30.3717 12.4475 32.1709 12.4358 33.9702C12.4358 34.2831 12.4917 34.5475 12.732 34.7571L15.7355 34.7534Z" fill="black"/>
<path d="M25.8556 23.4042C25.8556 24.641 25.8556 25.8776 25.8556 27.114C25.8556 27.8105 26.1358 28.1393 26.8264 28.25C27.0845 28.2918 27.1423 28.4559 27.1417 28.6895C27.1374 30.2116 27.1417 31.7342 27.1417 33.2569C27.1417 33.5433 27.1361 33.8298 27.1417 34.1175C27.1503 34.4476 27.3211 34.6394 27.6504 34.6431C28.5074 34.6541 29.365 34.6541 30.2232 34.6431C30.5661 34.6382 30.7277 34.4359 30.732 34.0499C30.7381 33.5083 30.732 32.9661 30.732 32.4246C30.732 31.198 30.732 29.9718 30.732 28.7461C30.732 28.3311 30.7535 28.309 31.1695 28.2469C31.3784 28.2145 31.5711 28.1149 31.7185 27.9632C31.8658 27.8115 31.9598 27.6159 31.9861 27.406C31.9922 27.3653 31.9959 27.3242 31.9972 27.283C31.9972 24.6975 32.0064 22.112 31.9916 19.5265C31.9873 18.6979 31.387 18.1065 30.5482 18.0887C29.4766 18.0661 28.4046 18.0661 27.3321 18.0887C26.4498 18.1059 25.8574 18.7403 25.8574 19.6335C25.8556 20.8906 25.8556 22.1477 25.8556 23.4042Z" fill="black"/>
<path d="M31.4264 14.872C31.432 14.5399 31.3716 14.21 31.2485 13.9015C31.1255 13.593 30.9423 13.312 30.7097 13.075C30.4771 12.838 30.1996 12.6496 29.8935 12.5209C29.5875 12.3922 29.2588 12.3256 28.9268 12.3252C28.5948 12.3247 28.266 12.3904 27.9596 12.5183C27.6531 12.6462 27.3752 12.8338 27.1419 13.0702C26.9087 13.3066 26.7247 13.587 26.6009 13.8952C26.477 14.2034 26.4156 14.5331 26.4204 14.8653C26.4204 16.2293 27.5504 17.3727 28.9096 17.3807C29.5757 17.3815 30.215 17.1178 30.6869 16.6474C31.1588 16.177 31.4248 15.5385 31.4264 14.872Z" fill="black"/>
<path d="M14.2502 17.2796C15.6217 17.2685 16.6675 16.1885 16.6522 14.798C16.638 13.515 15.5252 12.4356 14.2318 12.4503C12.8978 12.4651 11.8145 13.5568 11.8213 14.8791C11.8261 15.5194 12.0845 16.1316 12.5399 16.5815C12.9952 17.0315 13.6102 17.2825 14.2502 17.2796Z" fill="black"/>
</svg>
