<svg width="42" height="42" viewBox="0 0 42 42" fill="none" xmlns="http://www.w3.org/2000/svg">
<circle cx="21" cy="21" r="21" fill="white"/>
<path d="M19.1492 15.0342H16.2557L13.2364 22.9316L10.0732 15.0342H7L12.0322 27H14.2428L19.1492 15.0342Z" fill="black"/>
<path d="M20.7712 27H23.6468V15.0342H20.7712V27Z" fill="black"/>
<path d="M29.9434 27V22.9316C30.3927 22.9829 31.0756 22.9829 31.3452 22.9829C34.2567 22.9829 36 21.1026 36 18.9658C36 16.8974 34.7419 15 30.9139 15C29.9434 15 27.7687 15.0342 27.0678 15.0342V27H29.9434ZM31.2014 17.5641C32.2258 17.5641 32.9447 17.8889 32.9447 18.9487C32.9447 20.1111 32.0102 20.4188 31.2553 20.4188C30.842 20.4188 30.3567 20.3846 29.9434 20.3333V17.5983C30.5364 17.5812 30.824 17.5641 31.2014 17.5641Z" fill="black"/>
</svg>
