<svg width="42" height="42" viewBox="0 0 42 42" fill="none" xmlns="http://www.w3.org/2000/svg">
<circle cx="21" cy="21" r="21" fill="white"/>
<g clip-path="url(#clip0_612_64)">
<path d="M25.4339 35H16.5563L16.3784 34.9037C15.84 34.614 15.746 33.866 16.2306 33.4979C16.4062 33.3641 16.6666 33.2904 16.8908 33.2852C17.8842 33.2631 18.8785 33.2758 19.8723 33.2758H20.134C20.1401 33.1819 20.1479 33.1143 20.1479 33.0457C20.1479 30.4288 20.1462 27.812 20.1428 25.1954C20.1372 25.0738 20.0939 24.9572 20.0191 24.862C17.5985 21.7855 15.1738 18.7119 12.7451 15.641C11.9235 14.598 11.1011 13.5556 10.278 12.5138C10.0894 12.2753 9.94854 12.0199 10.018 11.6992C10.1135 11.2554 10.4438 11 10.9266 11C13.5388 11 16.1506 11 18.7622 11H31.0344C31.532 11 31.7827 11.1784 31.9578 11.6489C31.9686 11.6687 31.9826 11.6867 31.999 11.702V11.9837C31.8943 12.1715 31.8137 12.3781 31.6812 12.5443C28.4513 16.6451 25.2198 20.7445 21.9868 24.8427C21.9008 24.9574 21.8522 25.0964 21.8478 25.2404C21.8401 27.8264 21.8381 30.4122 21.8418 32.9978V33.2758H22.117C23.0955 33.2758 24.0742 33.2758 25.053 33.2758C25.1684 33.2744 25.2837 33.2852 25.3968 33.3082C25.7675 33.3895 25.9894 33.6322 26.0566 34.0041C26.1191 34.3511 25.9838 34.6319 25.7086 34.8404C25.6206 34.8996 25.5288 34.9529 25.4339 35ZM29.3498 12.7477H12.6409C13.0495 13.2665 13.4387 13.7497 13.814 14.2436C13.9196 14.3845 14.0322 14.4277 14.2022 14.4277C17.4763 14.4227 20.7504 14.4214 24.0245 14.4239C25.2954 14.4239 26.5662 14.4239 27.8371 14.4207C27.92 14.4207 28.0345 14.3995 28.0808 14.3427C28.5024 13.8271 28.912 13.3008 29.3498 12.7477Z" fill="black"/>
</g>
<defs>
<clipPath id="clip0_612_64">
<rect width="22" height="24" fill="white" transform="translate(10 11)"/>
</clipPath>
</defs>
</svg>
