<svg width="42" height="42" viewBox="0 0 42 42" fill="none" xmlns="http://www.w3.org/2000/svg">
<circle cx="21" cy="21" r="21" fill="white"/>
<g clip-path="url(#clip0_612_65)">
<path d="M20.8256 32.9999C20.4371 32.8029 20.3377 32.4759 20.3408 32.0589C20.3539 30.1436 20.3467 28.2278 20.3462 26.312C20.3462 25.7273 20.1167 25.4947 19.536 25.4947H14.0108C13.4405 25.4947 13.1875 25.2442 13.1875 24.6788C13.1875 22.2018 13.1875 19.7248 13.1875 17.2478C13.1902 16.0567 13.9279 15.117 15.0554 14.8435C15.1274 14.826 15.2008 14.8147 15.3318 14.7891C14.6238 14.6713 14.0715 14.3775 13.6664 13.8418C13.2614 13.3061 13.0975 12.6849 13.2168 12.0241C13.4463 10.7498 14.477 9.95043 15.7621 10.0143C16.8499 10.0674 17.8388 11.0295 17.9526 12.1006C18.0737 13.2426 17.4098 14.5107 15.8399 14.7918C16.7243 14.9335 17.3585 15.3815 17.7447 16.1673C17.9274 16.5389 17.9738 16.937 17.9733 17.3445C17.9733 18.6319 17.9721 19.919 17.9697 21.2057V21.4936C18.0652 21.4981 18.1439 21.5049 18.2227 21.5049C18.9712 21.5049 19.7201 21.5017 20.4686 21.5049C22.3298 21.517 24.0185 22.9893 24.2822 24.8335C24.319 25.1 24.3369 25.3688 24.3358 25.6378C24.3398 27.8077 24.3322 29.978 24.3434 32.148C24.3457 32.5528 24.2165 32.842 23.8353 32.9999H20.8256Z" fill="black"/>
<path d="M32.9994 16.2974C32.9422 16.5736 32.8954 16.852 32.8266 17.1251C32.5448 18.2568 31.9228 19.2751 31.0444 20.0428C30.166 20.8105 29.0733 21.2908 27.9134 21.419C24.905 21.76 22.1307 19.6814 21.632 16.7126C21.117 13.6322 23.1024 10.7305 26.1526 10.1124C29.2826 9.47773 32.3828 11.5995 32.9125 14.7374C32.9373 14.8832 32.9706 15.028 32.9999 15.1728L32.9994 16.2974ZM26.6081 13.9583C26.6081 14.5274 26.6059 15.0959 26.6081 15.6645C26.6108 16.1409 26.8656 16.3928 27.3472 16.3945C28.0205 16.3969 28.6941 16.3969 29.3681 16.3945C29.8123 16.3945 30.1107 16.1193 30.1062 15.7257C30.1017 15.3321 29.8114 15.0725 29.3793 15.068C28.9824 15.064 28.5854 15.0541 28.1893 15.0721C27.9728 15.082 27.9296 15.0033 27.9323 14.8049C27.9417 13.9597 27.939 13.114 27.935 12.2684C27.935 11.8424 27.6528 11.5487 27.2684 11.5487C26.884 11.5487 26.6108 11.8465 26.6086 12.2742C26.6081 12.8374 26.6081 13.3988 26.6081 13.9583Z" fill="black"/>
<path d="M12.5604 33.0002C12.294 32.8693 12.0824 32.6952 12.0653 32.3704C12.0464 31.9719 12.3318 31.6611 12.7306 31.6566C13.2162 31.6512 13.7019 31.6566 14.2127 31.6566V30.0273H15.5688V31.6539H16.4091C16.6184 31.6539 16.8282 31.6539 17.0393 31.6539C17.3908 31.6566 17.6604 31.863 17.727 32.1775C17.7963 32.5063 17.6473 32.7973 17.3318 32.9493C17.299 32.9651 17.2666 32.9831 17.2342 32.9997L12.5604 33.0002Z" fill="black"/>
<path d="M10.027 26.8296H10.2746C13.0951 26.8296 15.9169 26.8278 18.7398 26.8242C18.9689 26.8242 19.0409 26.8827 19.0229 27.1112C19.0018 27.3811 19.0207 27.651 19.0171 27.9209C19.0112 28.3954 18.7331 28.6811 18.2641 28.6815C15.7565 28.6842 13.249 28.6842 10.7417 28.6815C10.2791 28.6793 10.0023 28.3977 10 27.9389C10 27.5948 10 27.2506 10.0032 26.9065C10.0088 26.8802 10.0168 26.8545 10.027 26.8296Z" fill="black"/>
<path d="M10 25.4815V24.877C10 22.8429 10 20.8088 10 18.7748C10.0017 18.3553 10.1674 17.9531 10.4617 17.6541C10.756 17.3551 11.1557 17.1829 11.5753 17.1743C11.6631 17.1771 11.7507 17.1844 11.8377 17.1964V17.4707C11.8377 19.602 11.8377 21.7332 11.8377 23.8644C11.8377 24.3993 11.8638 24.9341 11.8782 25.4815H10Z" fill="black"/>
</g>
<defs>
<clipPath id="clip0_612_65">
<rect width="23" height="23" fill="white" transform="translate(10 10)"/>
</clipPath>
</defs>
</svg>
