<svg width="606" height="56" viewBox="0 0 606 56" fill="none" xmlns="http://www.w3.org/2000/svg">
<path d="M303.254 15.4868C301.632 15.4456 300.025 15.8016 298.575 16.5235C297.124 17.2453 295.876 18.3106 294.941 19.6248V16.3045H286.947C286.503 17.8006 285.919 19.2524 285.203 20.6408H287.847V50.177C287.847 50.177 287.847 54.8664 287.641 56H295.141C294.929 55.0027 294.966 50.9699 294.966 50.1398V38.7788C295.86 40.0951 297.071 41.1689 298.49 41.9024C299.909 42.636 301.491 43.006 303.092 42.9788C310.592 42.9788 315.718 37.0505 315.718 29.1585C315.705 21.3717 310.699 15.4868 303.254 15.4868ZM301.654 36.5487C297.554 36.5487 294.597 33.3461 294.597 29.1708C294.597 25.1071 297.554 21.9355 301.654 21.9355C305.754 21.9355 308.648 25.1071 308.648 29.1708C308.648 33.3337 305.723 36.5487 301.654 36.5487Z" fill="#283337"/>
<path d="M344.845 19.0612C342.688 17.0603 339.388 15.4868 334.581 15.4868C329.775 15.4868 326.456 17.0727 324.324 19.0736C322.96 20.3973 321.878 21.9793 321.143 23.7256C320.407 25.4718 320.033 27.3468 320.043 29.239C320.032 31.1223 320.406 32.9882 321.142 34.7245C321.878 36.4608 322.96 38.0317 324.324 39.3426C326.481 41.3744 329.781 42.9912 334.581 42.9912C339.382 42.9912 342.707 41.3744 344.845 39.3426C346.192 38.0249 347.256 36.4502 347.973 34.7138C348.689 32.9773 349.043 31.1149 349.014 29.239C349.044 27.352 348.691 25.4782 347.974 23.7296C347.258 21.9809 346.194 20.3932 344.845 19.0612ZM334.581 36.5488C332.663 36.4934 330.843 35.6993 329.506 34.3351C328.169 32.9709 327.421 31.144 327.421 29.2421C327.421 27.3403 328.169 25.5134 329.506 24.1492C330.843 22.7849 332.663 21.9909 334.581 21.9355C335.536 21.9434 336.479 22.1395 337.356 22.5123C338.233 22.8851 339.027 23.4271 339.691 24.1069C340.355 24.7866 340.875 25.5904 341.222 26.4715C341.57 27.3526 341.736 28.2934 341.713 29.239C341.737 30.1852 341.571 31.1266 341.224 32.0085C340.877 32.8903 340.357 33.6949 339.693 34.3752C339.029 35.0556 338.235 35.5982 337.358 35.9714C336.48 36.3446 335.536 36.5408 334.581 36.5488Z" fill="#283337"/>
<path d="M373.565 29.8522C372.595 29.0712 371.468 28.5051 370.259 28.192C371.304 27.7557 372.195 27.0219 372.819 26.0835C373.443 25.1451 373.773 24.0443 373.765 22.9204C373.779 21.9437 373.563 20.9773 373.135 20.0977C372.706 19.2182 372.077 18.4496 371.296 17.8531C369.315 16.3044 366.952 16.3044 365.283 16.3044H353.283C352.865 17.8083 352.282 19.2624 351.545 20.6407H354.151V36.5487C354.12 37.9982 354.045 41.3743 353.908 42.1672H367.09C369.141 42.2279 371.155 41.6232 372.828 40.4451C373.717 39.7891 374.432 38.9288 374.911 37.9381C375.39 36.9475 375.619 35.8562 375.578 34.7584C375.622 33.8448 375.465 32.9326 375.118 32.0853C374.77 31.238 374.24 30.4759 373.565 29.8522ZM361.264 21.923H364.39C366.234 21.923 367.277 22.5797 367.277 24.2336C367.277 25.8876 365.921 26.5071 364.533 26.5071H361.264V21.923ZM364.558 36.5487H361.264V31.1965H364.74C366.515 31.1965 368.146 31.8159 368.146 33.7796C368.171 35.9292 366.296 36.5487 364.558 36.5487Z" fill="#283337"/>
<path d="M280.94 42.1548C280.739 40.2927 280.636 38.4214 280.634 36.5486V21.9229C280.634 20.4424 280.771 17.0291 280.915 16.3044H273.29C273.426 17.3892 273.484 18.4822 273.465 19.5752C271.065 15.784 267.271 15.4743 265.433 15.4743C257.932 15.4743 252.77 21.5451 252.77 29.1583C252.77 36.7716 257.77 42.9787 265.327 42.9787C266.923 43.001 268.5 42.6321 269.917 41.9047C271.335 41.1774 272.549 40.1142 273.452 38.8096C273.466 39.9284 273.395 41.0466 273.24 42.1548H280.94ZM266.82 36.5486C262.751 36.5486 259.901 33.3459 259.901 29.1707C259.901 25.107 262.751 21.9353 266.82 21.9353C270.996 21.9353 273.883 25.107 273.883 29.1707C273.883 33.3335 270.996 36.5486 266.82 36.5486Z" fill="#283337"/>
<path d="M403.605 38.407C401.417 41.4052 397.523 42.9539 393.31 42.9539C385.016 42.9787 379.391 37.4654 379.391 29.2265C379.391 21.576 384.922 15.4743 392.742 15.4743C396.917 15.4743 400.673 16.5769 403.036 19.0238L399.911 24.3698C399.094 23.5089 398.099 22.8325 396.995 22.3867C395.89 21.9409 394.702 21.7363 393.51 21.7867C389.898 21.7867 386.416 24.6114 386.416 29.2203C386.386 30.1942 386.555 31.1641 386.913 32.0715C387.271 32.9789 387.811 33.8049 388.501 34.4997C389.19 35.1944 390.014 35.7435 390.924 36.1138C391.833 36.484 392.809 36.6678 393.792 36.6539C395.073 36.653 396.337 36.3676 397.493 35.8187C398.648 35.2699 399.664 34.4715 400.467 33.4822L403.605 38.407Z" fill="#283337"/>
<path d="M235.168 15.4867C233.357 15.4774 231.572 15.921 229.979 16.7764C228.386 17.6317 227.037 18.8713 226.055 20.3805C226.336 16.3168 227.968 12.3894 231.556 10.6982C236.556 8.22034 240.594 9.49025 243.9 5.45752L240.525 0C237.881 3.13451 234.787 1.93274 229.155 4.37964C220.705 7.92919 219.486 18.8194 219.486 26.4017C219.486 34.9876 223.936 42.9787 234.231 42.9787C242.719 42.9787 248.525 36.846 248.525 29.1274C248.525 21.0619 242.819 15.4867 235.168 15.4867ZM233.949 36.5486C229.88 36.5486 227.03 33.346 227.03 29.1708C227.03 25.107 229.88 21.9354 233.949 21.9354C238.125 21.9354 241.012 25.107 241.012 29.1708C241.012 33.3336 238.131 36.5486 233.949 36.5486Z" fill="#283337"/>
<path d="M408.999 20.6096H406.324C407.072 19.2399 407.645 17.7833 408.03 16.2734H416.337C416.268 17.407 416.199 19.1353 416.199 21.8919V26.3026H417.037L422.037 19.6495C422.889 18.5816 423.676 17.4646 424.394 16.3043H432.582C431.263 17.6729 430.032 19.1211 428.894 20.6406L423.225 28.1238L430.144 37.5335C431.336 39.1696 432.65 40.7144 434.076 42.1547H424.825C424.254 40.9317 423.529 39.785 422.669 38.7415L416.999 30.9733H416.199V36.5486C416.199 39.1999 416.237 40.9963 416.337 42.1671H408.768C408.957 40.3004 409.038 38.4245 409.011 36.5486L408.999 20.6096Z" fill="#283337"/>
<path d="M164.051 21.1301L158.001 11.3054C158.001 11.3054 153.581 4.20628 152.263 2.37885H161.826C162.621 4.1947 163.514 5.96687 164.501 7.68769L168.395 14.7187L172.502 7.65052C173.233 6.37441 174.589 3.99566 175.352 2.37885H185.002C183.571 4.23725 180.933 8.34432 179.052 11.3054L172.802 21.1301L180.302 32.9C182.352 36.2452 184.859 40.1045 186.459 42.1921H176.708C176.189 41.0522 175.283 39.3301 173.82 36.8461L168.395 27.554L162.657 36.8832C161.582 38.5897 160.595 40.3492 159.701 42.1549H150C151.738 39.9124 154.207 36.1213 156.294 32.9186L164.051 21.1301Z" fill="#283337"/>
<path d="M214.442 42.1238C214.233 40.258 214.127 38.3824 214.123 36.5052V21.8858C214.123 20.4052 214.267 16.992 214.404 16.2672H206.785C206.921 17.3541 206.979 18.4491 206.96 19.5442C204.56 15.753 200.772 15.4433 198.928 15.4433C191.415 15.4433 186.252 21.5079 186.252 29.115C186.252 36.722 191.253 42.9353 198.803 42.9353C200.399 42.956 201.975 42.5864 203.393 41.8592C204.81 41.132 206.025 40.0697 206.929 38.7663C206.951 39.8882 206.893 41.0102 206.754 42.1238H214.442ZM200.316 36.499C196.253 36.499 193.397 33.2964 193.397 29.115C193.397 25.0451 196.247 21.8734 200.316 21.8734C204.491 21.8734 207.379 25.0451 207.379 29.115C207.379 33.2964 204.491 36.499 200.316 36.499Z" fill="#283337"/>
<path d="M453.827 16.3106H455.609L459.053 20.9752L462.334 16.3106H464.003V26.2965H462.246V19.0796L459.065 23.5398H458.809L455.596 19.1478V26.2965H453.827V16.3106Z" fill="#283337"/>
<path d="M467.872 16.3106H473.703V17.9646H469.647V20.4425H473.272V22.0841H469.647V24.6672H473.847V26.3026H467.872V16.3106Z" fill="#283337"/>
<path d="M476.135 16.3107H478.148L481.804 21.0806V16.3107H483.56V21.062L487.198 16.2921H489.242L485.492 21.062L489.398 26.2965H487.354L483.554 21.1178V26.2965H481.798V21.1178L477.979 26.2965H475.954L479.898 21.093L476.135 16.3107Z" fill="#283337"/>
<path d="M490.742 24.6611H491.823C492.242 24.1469 493.205 22.0345 493.38 18.3115L493.48 16.3106H499.73V24.6611H501.099V28.0805H499.443V26.2965H492.399V28.0805H490.742V24.6611ZM493.767 24.6611H497.968V17.9646H495.192L495.024 19.6929C494.849 22.3009 494.124 24.215 493.774 24.6611H493.767Z" fill="#283337"/>
<path d="M508.149 23.9734C507.456 25.4973 506.662 26.2965 505.412 26.2965C504.923 26.2977 504.443 26.1601 504.03 25.9L504.655 24.4133C504.869 24.5792 505.134 24.6668 505.405 24.6611C505.624 24.6596 505.836 24.5916 506.014 24.4664C506.192 24.3411 506.326 24.1647 506.399 23.9611L506.543 23.6142L502.093 16.3106H504.093L507.393 21.8858L509.793 16.3106H511.581L508.149 23.9734Z" fill="#283337"/>
<path d="M520.613 22.0345H516.006V26.2965H514.231V16.3106H516.006V20.3929H520.613V16.3106H522.363V26.2965H520.613V22.0345Z" fill="#283337"/>
<path d="M529.201 16.2858H530.757L535.026 26.2964H533.151L532.101 23.7442H527.776L526.726 26.2964H524.944L529.201 16.2858ZM528.451 22.1026H531.401L529.938 18.584L528.451 22.1026Z" fill="#283337"/>
<path d="M537.608 26.2965V16.3106H540.471C543.44 16.3106 544.371 17.8779 544.371 19.5195C544.371 21.1611 543.09 22.7593 540.689 22.7593C540.383 22.7593 539.808 22.7593 539.377 22.7159V26.3212L537.608 26.2965ZM539.402 17.9646V21.031C539.817 21.0768 540.234 21.1016 540.652 21.1053C541.702 21.1053 542.527 20.6035 542.527 19.4947C542.527 18.3858 541.902 17.9398 540.652 17.9398C540.283 17.9274 539.852 17.9646 539.402 17.9646Z" fill="#283337"/>
<path d="M551.903 16.1556C552.597 16.1206 553.29 16.2294 553.939 16.475C554.589 16.7206 555.179 17.0975 555.673 17.5819C556.167 18.0663 556.554 18.6474 556.809 19.2881C557.063 19.9289 557.181 20.6152 557.153 21.3034C557.17 21.9892 557.046 22.6712 556.788 23.3077C556.529 23.9441 556.143 24.5214 555.651 25.0041C555.159 25.4869 554.573 25.8648 553.928 26.1147C553.284 26.3647 552.594 26.4813 551.903 26.4574C551.209 26.4907 550.516 26.3804 549.868 26.1337C549.22 25.8869 548.63 25.5091 548.138 25.0242C547.645 24.5394 547.26 23.9582 547.006 23.3175C546.752 22.6769 546.636 21.991 546.665 21.3034C546.646 20.6188 546.77 19.9376 547.027 19.302C547.284 18.6663 547.67 18.0896 548.161 17.6074C548.651 17.1251 549.237 16.7475 549.88 16.4978C550.524 16.2482 551.212 16.1317 551.903 16.1556ZM551.903 24.8282C554.015 24.8282 555.284 23.2857 555.284 21.3158C555.312 20.8594 555.246 20.4021 555.089 19.9721C554.932 19.5421 554.688 19.1485 554.371 18.8155C554.055 18.4825 553.674 18.2172 553.25 18.0358C552.827 17.8544 552.37 17.7608 551.909 17.7608C551.447 17.7608 550.991 17.8544 550.567 18.0358C550.144 18.2172 549.762 18.4825 549.446 18.8155C549.13 19.1485 548.886 19.5421 548.729 19.9721C548.572 20.4021 548.505 20.8594 548.534 21.3158C548.517 21.7664 548.591 22.2157 548.753 22.6372C548.914 23.0588 549.159 23.444 549.473 23.7703C549.787 24.0965 550.164 24.3571 550.581 24.5367C550.998 24.7162 551.448 24.8111 551.903 24.8158V24.8282Z" fill="#283337"/>
<path d="M558.69 24.6611H559.772C560.191 24.1469 561.153 22.0345 561.328 18.3115L561.428 16.3106H567.679V24.6611H569.047V28.0805H567.391V26.2965H560.347V28.0805H558.69V24.6611ZM561.716 24.6611H565.916V17.9646H563.153L562.997 19.7053C562.797 22.3009 562.078 24.215 561.716 24.6611Z" fill="#283337"/>
<path d="M578.254 22.0345H573.648V26.2965H571.904V16.3106H573.673V20.3929H578.279V16.3106H580.029V26.2965H578.273L578.254 22.0345Z" fill="#283337"/>
<path d="M585.655 19.7363C586.028 19.6904 586.404 19.6677 586.78 19.6681C589.28 19.6681 590.468 20.9071 590.468 22.8894C590.468 25.0018 588.968 26.3274 586.393 26.3274C585.442 26.3274 584.48 26.3274 583.892 26.3274V16.3106H585.655V19.7363ZM585.655 21.3779V24.6425C585.974 24.6425 586.28 24.6858 586.605 24.6858C587.905 24.6858 588.593 24.1035 588.593 22.9327C588.593 21.8611 587.874 21.3035 586.636 21.3035C586.308 21.3115 585.981 21.3363 585.655 21.3779ZM591.774 16.3106H593.53V26.2965H591.774V16.3106Z" fill="#283337"/>
<path d="M597.393 26.2963V16.3105H599.168V23.4158L604.45 16.3105H606V26.2963H604.231V19.2034L598.949 26.2901L597.393 26.2963ZM600.65 13.907C600.762 14.4645 601.15 14.737 601.9 14.737C602.65 14.737 602.993 14.5202 603.05 13.907H604.706C604.662 15.1459 603.456 15.945 601.9 15.945C600.168 15.945 599.118 15.1211 599.018 13.907H600.65Z" fill="#283337"/>
<path d="M456.79 32.1317H458.346L462.609 42.1238H460.734L459.684 39.5716H455.377L454.315 42.1238H452.521L456.79 32.1317ZM456.046 37.9547H458.996L457.521 34.4052L456.046 37.9547Z" fill="#283337"/>
<path d="M466.19 36.245H470.678C470.334 34.5725 468.953 33.6495 467.053 33.6495C466.202 33.6463 465.374 33.9158 464.69 34.4176L464.003 33.1043C464.996 32.3519 466.222 31.9644 467.472 32.0079C470.434 32.0079 472.535 34.0335 472.535 37.1433C472.535 40.253 470.491 42.3034 467.272 42.3034C466.057 42.3415 464.864 41.9751 463.884 41.2627L464.653 39.7946C465.396 40.3568 466.305 40.6615 467.241 40.6619C468.068 40.7203 468.887 40.4659 469.533 39.9499C470.179 39.4338 470.604 38.6944 470.722 37.8804H466.19V36.245Z" fill="#283337"/>
<path d="M475.647 42.1238V32.1627C476.21 32.1627 477.804 32.1317 478.51 32.1317C481.479 32.1317 482.41 33.7052 482.41 35.3468C482.41 36.9884 481.129 38.5804 478.729 38.5804C478.429 38.5804 477.847 38.5804 477.416 38.537V42.1238H475.647ZM477.416 33.7795V36.8769C477.831 36.9206 478.249 36.9434 478.666 36.945C479.716 36.945 480.541 36.4494 480.541 35.3344C480.541 34.2194 479.916 33.7795 478.666 33.7795C478.335 33.7733 477.904 33.7919 477.429 33.8043L477.416 33.7795Z" fill="#283337"/>
<path d="M489.967 32.008C490.661 31.973 491.355 32.0817 492.004 32.3273C492.653 32.5729 493.244 32.9499 493.738 33.4342C494.232 33.9186 494.618 34.4997 494.873 35.1405C495.128 35.7812 495.245 36.4676 495.217 37.1557C495.235 37.8412 495.111 38.523 494.852 39.1591C494.594 39.7952 494.207 40.3722 493.715 40.8544C493.223 41.3367 492.637 41.714 491.992 41.9632C491.348 42.2125 490.658 42.3283 489.967 42.3035C489.275 42.3366 488.584 42.2269 487.937 41.9812C487.29 41.7356 486.702 41.3595 486.209 40.8766C485.717 40.3938 485.331 39.8149 485.076 39.1765C484.821 38.5381 484.703 37.8542 484.729 37.1681C484.709 36.4824 484.831 35.8 485.088 35.1629C485.344 34.5257 485.73 33.9475 486.221 33.4639C486.711 32.9803 487.297 32.6016 487.942 32.3512C488.586 32.1008 489.275 31.984 489.967 32.008ZM489.967 40.6805C492.08 40.6805 493.348 39.1442 493.348 37.1743C493.376 36.7179 493.31 36.2606 493.153 35.8307C492.996 35.4007 492.752 35.0071 492.436 34.674C492.12 34.341 491.738 34.0757 491.315 33.8943C490.891 33.7129 490.435 33.6193 489.973 33.6193C489.512 33.6193 489.055 33.7129 488.632 33.8943C488.208 34.0757 487.827 34.341 487.511 34.674C487.194 35.0071 486.95 35.4007 486.793 35.8307C486.636 36.2606 486.57 36.7179 486.598 37.1743C486.582 37.6241 486.657 38.0724 486.819 38.4929C486.981 38.9134 487.226 39.2975 487.54 39.6226C487.854 39.9476 488.231 40.2071 488.647 40.3856C489.064 40.5641 489.513 40.6581 489.967 40.6619V40.6805Z" fill="#283337"/>
<path d="M504.605 33.8043H500.111V42.1238H498.343V32.1627H506.374V42.1238H504.605V33.8043Z" fill="#283337"/>
<path d="M514.737 32.008C515.431 31.973 516.125 32.0817 516.774 32.3273C517.424 32.5729 518.014 32.9499 518.508 33.4342C519.002 33.9186 519.389 34.4997 519.644 35.1405C519.898 35.7812 520.016 36.4676 519.988 37.1557C520.005 37.8412 519.881 38.523 519.623 39.1591C519.364 39.7952 518.977 40.3722 518.485 40.8544C517.994 41.3367 517.407 41.714 516.763 41.9632C516.118 42.2125 515.429 42.3283 514.737 42.3035C514.046 42.3366 513.354 42.2269 512.707 41.9812C512.061 41.7356 511.472 41.3595 510.98 40.8766C510.487 40.3938 510.101 39.8149 509.847 39.1765C509.592 38.5381 509.474 37.8542 509.5 37.1681C509.48 36.4824 509.602 35.8 509.858 35.1629C510.115 34.5257 510.5 33.9475 510.991 33.4639C511.482 32.9803 512.068 32.6016 512.712 32.3512C513.356 32.1008 514.046 31.984 514.737 32.008ZM514.737 40.6805C516.85 40.6805 518.119 39.1442 518.119 37.1743C518.147 36.7179 518.08 36.2606 517.924 35.8307C517.767 35.4007 517.523 35.0071 517.206 34.674C516.89 34.341 516.509 34.0757 516.085 33.8943C515.662 33.7129 515.205 33.6193 514.744 33.6193C514.282 33.6193 513.826 33.7129 513.402 33.8943C512.979 34.0757 512.597 34.341 512.281 34.674C511.965 35.0071 511.721 35.4007 511.564 35.8307C511.407 36.2606 511.34 36.7179 511.369 37.1743C511.353 37.6241 511.428 38.0724 511.59 38.4929C511.751 38.9134 511.997 39.2975 512.311 39.6226C512.625 39.9476 513.001 40.2071 513.418 40.3856C513.835 40.5641 514.283 40.6581 514.737 40.6619V40.6805Z" fill="#283337"/>
<path d="M523.113 42.1238V32.1627C523.676 32.1627 525.276 32.1317 525.976 32.1317C528.945 32.1317 529.876 33.7052 529.876 35.3468C529.876 36.9884 528.626 38.5804 526.194 38.5804C525.894 38.5804 525.313 38.5804 524.882 38.537V42.1238H523.113ZM524.882 33.7795V36.8769C525.297 36.9206 525.714 36.9434 526.132 36.945C527.182 36.945 528.007 36.4494 528.007 35.3344C528.007 34.2194 527.382 33.7795 526.132 33.7795C525.788 33.7733 525.357 33.7919 524.882 33.8043V33.7795Z" fill="#283337"/>
<path d="M531.532 32.1627H539.839V33.8043H536.57V42.1238H534.801V33.8043H531.532V32.1627Z" fill="#283337"/>
<rect width="1.76712" height="41" transform="matrix(-1 0 0 1 129 2)" fill="#FED745"/>
<rect width="2.94521" height="41" transform="matrix(-1 0 0 1 119.575 2)" fill="#FED745"/>
<rect width="4.71233" height="41" transform="matrix(-1 0 0 1 110.74 2)" fill="#FED745"/>
<rect width="6.47945" height="41" transform="matrix(-1 0 0 1 100.137 2)" fill="#FED745"/>
<rect width="7.65753" height="41" transform="matrix(-1 0 0 1 89.5343 2)" fill="#FED745"/>
<rect width="8.83562" height="41" transform="matrix(-1 0 0 1 77.1644 2)" fill="#FED745"/>
<rect width="11.1918" height="41" transform="matrix(-1 0 0 1 64.2054 2)" fill="#FED745"/>
<rect width="50.6575" height="41" transform="matrix(-1 0 0 1 50.6575 2)" fill="#FED745"/>
</svg>
