<svg width="375" height="1030" viewBox="0 0 375 1030" fill="none" xmlns="http://www.w3.org/2000/svg">
<path fill-rule="evenodd" clip-rule="evenodd" d="M375.463 961.884L375.463 82.823V81.1505L62.9128 3.20846C32.6999 -8.55316 4.18378e-05 13.4759 4.04334e-05 45.5908L3.53907e-05 160.903L0 961.884L3.31033e-06 1037.58H376V961.884H375.463ZM3.31033e-06 1214.21L3.1361e-06 1210.23H376V1214.21L3.31033e-06 1214.21ZM3.01995e-06 1186.32L3.31033e-06 1192.96L376 1192.96V1186.32H3.01995e-06ZM3.31033e-06 1173.04L2.84572e-06 1162.42H376V1173.04L3.31033e-06 1173.04ZM2.67149e-06 1134.53L3.31033e-06 1149.14L376 1149.14V1134.53H2.67149e-06ZM3.31033e-06 1125.23L2.55534e-06 1107.97H376V1125.23L3.31033e-06 1125.23ZM2.43919e-06 1077.42L3.31033e-06 1097.34H376V1077.42L2.43919e-06 1077.42ZM3.31033e-06 1068.13L2.20688e-06 1042.89H376V1068.13H3.31033e-06Z" fill="#7497A9"/>
</svg>
